<?xml version="1.0" encoding="utf-8"?>
<!-- Generator: Adobe Illustrator 24.1.2, SVG Export Plug-In . SVG Version: 6.00 Build 0)  -->
<svg version="1.1" id="Layer_1" xmlns="http://www.w3.org/2000/svg" xmlns:xlink="http://www.w3.org/1999/xlink" x="0px" y="0px"
	 viewBox="0 0 128 128" style="enable-background:new 0 0 128 128;" xml:space="preserve">
<style type="text/css">
	.st0{fill:#FFFFFF;}
</style>
<path class="st0" d="M44.4,100.6c-4.2-3.3-8.7-6.5-11.8-11c-6.5-7.9-11.5-17.1-14.9-26.7c-2.1-6.3-2.8-13-5.4-19
	c-2.8-4.4,0.5-9.2,5.3-10.5c2.1-0.4,5.9-2.4,1.4-1c-4.1,3-4.4-2.7-0.3-3.1c2.8-0.4,3.9-2.7,2.9-4.8c-3-2,7.4-4.2,2.1-7.1
	c-5.5-5.9,7.7-7.1,4.4-0.3c-0.8,5.2,9.2-1,6.9,5c2.3,2.9,8.8,0.6,8.6,4.7c3.4,0.2,4.6,3.1,7.8,3.3c3.3,1.5,9.4,2.7,10.5,6.4
	c-3.3,2.6-11-5.4-11.3,1.8c1,10.7,0.7,21.7,4.7,31.9c1.8,6.2,6.3,11,10.4,15.8c3.9,4.7,9.1,8,14.5,10.8c4.7,2.2,9.8,3.7,14.9,4.6
	c2.1-1.6,5.7-7.5,9-5c0.2,2.8-6.4,5.8-0.3,5.5c3.6-1.1,6.1,2.8,9-0.7c2.7,3.2,11.3-2.1,9.4,4.5c-2.6,1.7-6.4,0.7-9.1,3
	c-4.3-2.2-7.8,1.9-12.6,1.4c-5.3,0.9-10.7,1.3-16.1,1.3c-8.8-0.7-17.9-1-26.3-4.1C53.2,106,48.6,103.3,44.4,100.6L44.4,100.6z
	 M51.9,103.9c4.6,2,9.2,4.1,14.2,4.8c8.1,1.1,16.4,2.8,24.4,1.3c-3.7-1.7-7.4,0.6-11.1-1.2c-4.4,0.9-9.1-0.2-13.5-0.8
	c-5-2.3-10.5-3.8-15.2-6.7c-5.9-2.2,3.1,2.8,4.7,3.2c3.7,2.1-4.1-1.1-5.2-1.9c-3.1-1.7-3.5-1.4-0.3,0.4
	C50.6,103.1,51.2,103.5,51.9,103.9z M43.1,97.6c4.5,1.7,0-3.2-2.1-2.9c-0.9-1.6-3.5-2.6-1.7-3.4c-3.3,1.1-3.4-4.3-5-3.5
	c-3.5-1.1-1.3-4.9-5.5-7.3c-0.4-2.5-4.1-4.7-5.3-8.4c-0.5-1.9-4.2-7.5-1.9-2.3c1.9,5,5.3,9.2,8.1,13.4c2.2,4,4.8,8.3,8.7,10.8
	C39.9,95.3,41.2,97.2,43.1,97.6z M30.2,83.4C30.3,82.8,31,84.9,30.2,83.4z M48.5,99.6C49.5,99.2,47,99.1,48.5,99.6z M50.9,100.5
	C50.7,99.3,49.8,101.2,50.9,100.5z M54,101.8C55.4,100.4,51.7,100.9,54,101.8z M59.2,104.7C60.1,103.4,56.4,104.2,59.2,104.7z
	 M49.2,97.7C51.4,96.3,46.2,97.7,49.2,97.7z M51.4,98.8C51.4,98.1,50.6,99.2,51.4,98.8z M62.9,106c1.8,1.2,10.7,2.5,5.2,0.5
	C67.1,106.7,57.7,103.8,62.9,106z M44.7,91.8C44.5,91.1,41.9,91,44.7,91.8z M50,94.9C51.4,94,47.2,94.2,50,94.9z M54.5,97.7
	C56.5,96.9,51.3,96.9,54.5,97.7z M42.5,89.5c2.2,1.7,8.7,0.2,3.3-1c-2.5-1.3-8-2.2-4.2,0.8C41.6,89.3,42.5,89.5,42.5,89.5z
	 M57.5,98.6C58.5,97.1,53.8,97.8,57.5,98.6z M53,95c5.3,1.5-4.4-3.3-1.3-0.6l0.7,0.3L53,95z M62.1,100.3
	C67.1,100.3,57.6,99.6,62.1,100.3z M40.6,86.6C40.4,85.7,39.4,86.7,40.6,86.6z M70.6,105C70.7,103.4,68.9,106.3,70.6,105z
	 M49.2,91.8C48.9,90.9,47.6,91.8,49.2,91.8z M41.1,86C44,85.8,37.2,84.8,41.1,86z M31.6,79.9C31.2,78.5,28.5,77.4,31.6,79.9z
	 M56.6,95.7C56.1,95.1,56.3,95.9,56.6,95.7z M72.2,105.3C72.1,104.4,71.3,105.6,72.2,105.3z M55.2,94.3C55.5,93.1,52.8,94,55.2,94.3
	z M43.6,87C45.8,86.7,40.2,85.5,43.6,87z M63.3,99.2C66.6,97.8,60,98.5,63.3,99.2z M53,92.2c3.8,0.5-4.6-2.6-0.8-0.3L53,92.2z
	 M66.3,100.4c3.6-2.1,2.4,5,6.1,0.6c3.6-2.6-3.1,3.3,1.3,0.5c3.2-2.2,8,1,11,2.1c2.2-0.1,4.3,1.9,6.5,0.7c4.3-1.2-8.4-1.7-5.1-3.8
	c-3.9,1.1-6.8-1.4-8.7-3.9c-4.4-1-9.5-3.3-11.7-7.1c-0.9-1.5,1.3,0.2-0.8-2.2c-2.6-2.3-4-5-5.7-7.9c-2.1-1.1-2.4-4.5-2.6-0.1
	c0-2.7-2.6-4.6-3.2-3.8c0-2.6,2.8-1.3,0.8-3.3c-0.4-2.7-1.8-5.6-2.2-8.7c-0.6-1.5-0.1-4.7-2.2-1.3c-0.8,3.6-0.3-4.4,0.9-1.8
	c1.6-2.7-0.6-2.4-0.7-2c1-2.3,0.6-5.5-0.3-4.2c0.5-2.4,0.9-8.8-0.8-7.7c1-2.5,1.9-11.4-2.5-8c-1.8,0-4.8,0.6-6.3,1.4
	c4.6,2.5-0.5,0.9-2.3,0.5c-0.2,2.3-2.1,1.3-4.4,1.3c3.7,0.5-1.8,3.8-3.9,2.5c-2.7,1.3,2.4,4.6,0,5.6c0.3,1.5-4.2-0.5-3.8,3
	c-2.6-1.1-0.4,4.2,1,2.4c4.5,1.2,3.2,4,3.3,6.7c-0.7,1.5-3.6-3.6-0.6-3.4c-2.4-3.8-2.6-1.4-4.6,0.4c-0.5,0.1,5,2.5,1.6,3.7
	c3,0.5,3.1,3.1,3.7,4.8c1.8,1.9,1.4-2.1,3.6,0.2c-1.4-2-7.3-5.7-2.5-4.5c0-2-0.9-3.7,0.6-3.6c1.4-2.6-1.5,6.4,1.7,3.1
	c0.9-0.4,1.1-2.6,2.7,0.2c2.3,2.3,0.8,4-2.5,1.9c0.6,2,4.4,2.7,3.7,5.9c0.8,2.8,1.8,1.7,2.8,1.6c0.7,2.7,1.1,0.7,1.2-0.6
	c3.3,0.7,2.6,2.7,3.6,4.1c2.3,1-3.3-7,0.7-2.4c4.2,3.8,1.6,5.3-2.2,4.7c2.4-0.2,3.1,3.2,6.1,3.1c2.7,1.3,4.5,6.2-0.1,4.2
	c-1.6-1.4-7.3-3.2-2.7-0.5c4.3,2,7.7,3.2,11.9,5.7c3,2.1,4.3,4.5,5.4,5c-2.5,1.2-7.5-0.9-3.8-1.6c-2.3-0.4-4.9-1.6-2.7,1.3
	c1.9,1.6,6.7,1.4,7.6,1.6c-0.7,1.6-2,1.7,0,1.9C63.2,99.5,66.1,99.7,66.3,100.4z M61.8,87.4c-1.4-1.4-1.7-4.1-0.2-1.8
	C62.3,85.9,63.9,90,61.8,87.4z M76.7,96.9C77.6,96.9,76.8,97.6,76.7,96.9z M59.6,83.9C59.5,81.7,60.1,85.6,59.6,83.9z M58.1,81.9
	C56.4,78.6,60.3,82.8,58.1,81.9z M40,69.4C41,69.2,40.5,71.2,40,69.4z M54.4,77.2C55,74.9,55.1,79.2,54.4,77.2z M44.3,70.2
	C43.6,68.9,45.8,71.4,44.3,70.2z M53,73c-1.6-3.7,1.2-2,0.4,0.6L53,73z M38,63c-0.7-1.2-1.9-4.7-1.5-5.8c0.3,1.8,3.7,7.5,1.7,2.4
	c-2.3-4.3,2.7,1.4,3.3,2.5c0.2,1.1-1.4-0.3-0.3,2.2C39,61.4,39.8,65.8,38,63z M33.3,59.8C33.5,57,34.4,61.7,33.3,59.8z M35.4,60.5
	C36.4,58.4,37.1,63.4,35.4,60.5z M30.4,56.6c-1.7-1.7-3-3.3,0.1-1.1c1.2,0-2.6-3.6,0.3-1.2C33.8,54.9,32.2,59.4,30.4,56.6z M33,56.5
	C34,55.5,33.5,57.5,33,56.5z M34.6,57C33.1,54.2,36.5,58.2,34.6,57z M31.4,54c-5-4.5,6.3,2.3,0.8,0.8C32.2,54.8,31.4,54,31.4,54z
	 M45.8,62.3c-2.2-1.3-0.6-9.2,0.2-3.8c2.1-0.7-0.1,2.8,1.5,2.8C47.2,63.5,46.5,64.2,45.8,62.3z M51.1,65.5
	C51.3,63.1,51.6,67.1,51.1,65.5z M50.2,64.5C50.4,63.5,50.2,65.7,50.2,64.5z M32.4,52.5c-3.2-4.5,9.4,4.5,2.1,1.1
	C33.7,53.4,32.8,53.3,32.4,52.5z M42.7,57.9C42.3,54.2,43.3,58.5,42.7,57.9z M50.4,62.9C51,60.8,50.5,64.3,50.4,62.9z M32.9,50.8
	c1.9-0.4,8,3.4,2.4,1.1C34.7,51.2,33.4,51.5,32.9,50.8z M49.4,59c0.2-3.8,1.2-2.3,0,0.5L49.4,59z M34.3,49.4
	c0.8-1.2-2.1-5.2,0.4-1.5c1.1,0.8,3.1,1.4,1.3,1.8C38.9,52.3,35.4,50.5,34.3,49.4z M48.6,57.8C49.1,53.4,49,60.4,48.6,57.8z
	 M32.7,45.4C33.3,45.2,33,46.2,32.7,45.4z M36.4,47.6C37.3,45.6,38.2,49.8,36.4,47.6z M46.9,53.4C46.9,52.7,47.1,54.6,46.9,53.4z
	 M46.3,52.1C44.8,48.5,47.6,54,46.3,52.1z M45.4,49.8C45.1,48.3,46.2,51.6,45.4,49.8z M46.8,47.4c-1-1.8,1.3-7.8,1.5-4
	c-1,2.9-0.3,4.5,0.4,0.6C50.1,40.9,48.5,50,46.8,47.4z M48.3,38.5C48.8,38,48.4,39.1,48.3,38.5z M45.8,87.6
	C45.2,87.1,45.9,87.9,45.8,87.6z M51,90.2c2.9,0.7,2.8-0.4,0.3-0.8c-1.4-1.3-5.8-2.7-1.8-0.2C49.6,89.9,50.5,89.9,51,90.2z
	 M40.8,83.5c1.6,1.2,5.9,3.3,2.2,0.4c1.2-1.4-2.4-2.2-1.2-3.2c-3.1-1.9-2.4-1.7-0.3-1.6c-3.7-1.6,0.5-1.5,0.3-2.4
	c-1.4-0.3-7-2.5-3.7,0.2c-3.4-1.7-0.8,0.6-1.8,0.4c-3.4-0.9,3.1,2.6-0.5,1.7c2,1.6,5.3,4,0.8,1.7C36.1,81.5,39.9,82.8,40.8,83.5z
	 M46.2,86.5C52.7,88.6,43,84,46.2,86.5z M73.7,103.2C73.8,101.9,72.8,104.3,73.7,103.2z M76.5,104.4c1.5-1.5,0.1,2.3,2.5-0.4
	c0-1.9-0.1-3.1-2.8-0.7C75.4,103.7,75.1,105.5,76.5,104.4z M31.6,76.2C31.2,74.4,28.4,74.4,31.6,76.2z M34.7,78.2
	C33.5,76.3,30.7,76.5,34.7,78.2z M51.8,88.6c1.7,1.5,7.7,1.1,2,0.2C53,87.5,48.5,87.8,51.8,88.6z M75.4,103.1
	C78,101,72.9,104.1,75.4,103.1z M80.8,106.8C80.8,106.1,79.7,107.1,80.8,106.8z M80.8,105.8C83.7,102.8,78,106,80.8,105.8z M24.2,70
	c-2.4-3.5-1.5-5-3.9-7.9c-0.5-2.2-4-7.1-1.9-1.9C20.5,63.3,21.1,68,24.2,70z M79.9,104.9C85.2,101.5,77.8,103.4,79.9,104.9z
	 M83.9,106.5C86.6,104.2,82.3,106,83.9,106.5z M30.8,72.4C31.5,71.3,28.8,72.2,30.8,72.4z M83.1,105.4c2.6-1.6-0.6-1.4-0.5,0.2
	L83.1,105.4z M48.5,83.6C48.4,82.5,47.2,83.7,48.5,83.6z M50.6,84.8C50,83.4,49.6,85,50.6,84.8z M87.2,106.5c3.3-2.4-2-0.4-0.7,0.4
	L87.2,106.5z M85.9,105.9C88.6,103.7,83.1,106.9,85.9,105.9z M92.3,110.1C94.1,108.9,90.1,109.8,92.3,110.1z M32.4,71.6
	c2.4,0.5,9.6,5.9,5.3,0.4c-2.2-0.6-0.9-5.9-3.1-5c1.5,2.5,1.2,3.5-1.9,2c-3.9-1.9-2.2,0.9-1.4,1.7C30.3,70.9,32.7,71.6,32.4,71.6z
	 M21.5,63c0.4-1.8-4-9.8-2.1-4C20.1,60.2,20,62.5,21.5,63z M41.5,75.3C40.3,74.3,41.4,75.2,41.5,75.3z M44.5,76
	C44.5,74.1,41.2,75.2,44.5,76z M70.8,92.6C70.3,91.3,68.8,92.6,70.8,92.6z M72.1,93.5C71.9,92.8,71.4,93.7,72.1,93.5z M82.5,100.1
	C83.5,99.3,81.3,100,82.5,100.1z M26.9,64.3C29.8,63.2,23.9,63.6,26.9,64.3z M68.5,90.6C68.5,88.7,66.7,91,68.5,90.6z M25.8,61.7
	C27.6,61.1,24.1,61.3,25.8,61.7z M31.1,64.3C31.1,63.7,30.6,64.5,31.1,64.3z M96.4,104.3c2.4-0.5,7.8,1.2,8.6-0.6
	c-2.9-0.1-9.9-2-10.3,0.5l0.6,0.1L96.4,104.3z M32.8,64.7C32.9,62.9,31.4,64.7,32.8,64.7z M18.8,55C18.2,51.4,16.4,54.4,18.8,55z
	 M22.1,55.8C22.2,54.7,19.1,54.8,22.1,55.8z M24.1,56.8C23.5,56.3,23.6,57.3,24.1,56.8z M36.1,64.5C36.7,64,34.8,64.1,36.1,64.5z
	 M22.8,54.6C22.5,51.9,18.9,54.2,22.8,54.6z M15.9,50.2C15.8,48.9,15.2,50.7,15.9,50.2z M16.9,49.4C16.8,47.9,16.1,49.6,16.9,49.4z
	 M22.6,52.8c2.4-0.9-4.4-1.9-0.5-0.2L22.6,52.8z M98.2,99.5C99.7,98.1,96.2,99,98.2,99.5z M107.3,104.2
	C107.9,102.4,105.8,104.4,107.3,104.2z M23.1,49.8C23.4,48.1,21.3,50.2,23.1,49.8z M15.1,44.4c-0.4-2.5-0.4-6.8,3.8-5.3
	c-5.5,1.1,3.8,6.8,2.6,2.3c2.3,0.1,4.5-1.4,3.3,0.9c4.6-0.5,7.7-4.5,12.1-3.9c3.4-0.5,7.2-0.8,10.9-2.2c3-0.2,6-3.5,4.3-5.4
	c-4.2-0.4-8.5,0.2-13.1,1.1c-5.1,1.1-9.7,3.1-14.8,3.9c-5,0.7,1,1.8-0.4,2.1c-2.6,0.9,3.1,1.5-0.3,2.5c-2.1-0.4-4.4-1.1-3.4-3.4
	c-4.8,0.6-9,2.6-5.2,7.5C14.8,44.4,15.1,44.4,15.1,44.4z M26.7,38.6c1.1-4.1,6,3.4,1.8,0.5C28,38.7,27.2,38.4,26.7,38.6z M26.9,36.5
	C28.5,35.3,27.7,37.2,26.9,36.5z M28.9,36.6c0.1-1.9,4.7,1,0.8,0.7L28.9,36.6z M31.7,35.5C32.8,34.3,32,36.5,31.7,35.5z M32.5,35
	c1.7-2.1,9.7-1.3,3.8-0.2C34.8,33.6,33.6,35.5,32.5,35z M42.9,33.4C42.6,27.8,48.1,35.4,42.9,33.4z M45.8,33.4
	c1.1-2.8,4.2-1.1,0.5-0.6C46.4,33.1,46.2,34.2,45.8,33.4z M22,48.4C25.2,46.4,18.6,46.6,22,48.4z M24.4,49
	C25.5,47.8,21.9,48.5,24.4,49z M17.3,44C19.2,42.6,15.2,43.5,17.3,44z M112.7,103.7C112.7,102,111.3,104.4,112.7,103.7z M103,97.1
	C103.3,95.2,101.8,97.2,103,97.1z M115.4,104.3c2.6,0,7.8-0.8,2.2-0.8C116.7,103.7,112.4,103.6,115.4,104.3z M26.5,47.9
	c2.1-0.1,3.3-2.3-0.4-2.2c-5.7-0.6,5,2-0.7,1.2C24.6,47.4,26.4,48,26.5,47.9z M28.3,48.8C28.1,47.5,27.7,49.5,28.3,48.8z M30.5,43
	C31.4,41.9,29.2,42.7,30.5,43z M23.5,31.4c3.7-1.3,8.8-2.7,10.6,0.6c-1.8-2.1-0.7-4.3,1-1.1c2.4,3.2,3.6-1.5,2-2.5
	c1.8,2.2,3.8,3.2,1.2,0.1c2.8-3.4-5.7,0.5-7.6,0.4C29.8,29.3,21.1,31.1,23.5,31.4z M25.7,27.2c2.1-1.6,7.4,1,4-1.6
	C29.4,25.3,22.4,27.5,25.7,27.2z M33.5,27.5c2.5,0.1-1.1-3.3,1.9-1.8c-0.5-1.6-3.5-1.9-4.9-2.5C29.7,24.6,32.1,27.5,33.5,27.5z
	 M27.1,20.5C28,19.3,25.6,21.1,27.1,20.5z M30.3,21.2c4-0.5-1-1.7-0.8,0L30.3,21.2z M24.3,16.6c-2.8-3.7,5.3,0.6,2.4-3.2
	C24.4,11.5,22.1,15.5,24.3,16.6z M60.6,36.1c1.3-2.3-5.3-3.1-0.9-0.8C60.1,35.4,60,36.3,60.6,36.1z"/>
</svg>
