<?xml version="1.0" encoding="utf-8"?>
<!-- Generator: Adobe Illustrator 24.1.2, SVG Export Plug-In . SVG Version: 6.00 Build 0)  -->
<svg version="1.1" id="Layer_1" xmlns="http://www.w3.org/2000/svg" xmlns:xlink="http://www.w3.org/1999/xlink" x="0px" y="0px"
	 viewBox="0 0 128 128" style="enable-background:new 0 0 128 128;" xml:space="preserve">
<style type="text/css">
	.st0{fill:#FFFFFF;}
	.st1{fill:#CA2727;}
</style>
<path class="st0" d="M15.7,69.9c-0.7-0.1-2.4-0.5-3.8-0.9l-2.6-0.7l1.3-2.4l1.3-2.4L10.9,62c-1.5-1.9-3.5-6-3.5-7.3
	c0-3.1,4-7.6,9-10c3.4-1.7,6.1-1.7,9.5-0.1l2.6,1.2l0.7-1.1c0.4-0.6,0.7-1.3,0.7-1.7s0.3-0.6,0.7-0.6s0.7,0.1,0.7,0.2
	c0,0.3-3,7.8-3.2,8c-0.1,0.1-0.9-0.3-1.8-0.8c-2.6-1.5-5.8-2.5-8.3-2.6c-5.8-0.1-7.9,5.6-3.7,10.6l1.4,1.8l4-3.2
	c4.4-3.6,5-3.7,8.4-1.3c3.9,2.7,4,6.8,0.2,11C25,69.8,21.6,70.9,15.7,69.9L15.7,69.9z M25.6,65.8c1.9-1.5,1.8-4.3-0.3-6.6
	c-2.6-2.8-3.5-2.7-8.1,1.2c-4.6,3.8-4.6,3.7,0.9,5.5C21.8,67.1,24.1,67.1,25.6,65.8z M63,80.6c-1.3-0.5-4.9-1.9-7.9-3.3
	c-8.2-3.6-9.3-3.6-11.8-0.7c-0.6,0.7-1.2,1.1-1.4,0.9c-0.5-0.5,1-3,2.9-4.7c1.5-1.3,2-1.5,3.7-1.3c1.1,0.1,4.6,1.4,7.9,2.8
	c7.4,3.2,9.6,3.8,12.4,3.8c3.4,0,5.2-2.4,4.1-5.6c-0.3-0.8-0.2-1.1,0.3-1.1c1,0,1.5,3.8,0.8,5.9c-0.3,0.9-1.2,2.2-2,2.9
	c-1.2,1-1.9,1.2-4.2,1.2C66.7,81.5,64.4,81.1,63,80.6L63,80.6z M43.9,69.1c-3-1.4-5.8-4.1-7.4-7.3c-2.5-5.1-1.8-8.3,3-12.7
	c4-3.7,7.3-5.1,11.8-5.1c3.2,0,3.9,0.2,6,1.5c4.9,3,6.2,8.9,3.2,15.2C57,68.1,49.7,71.8,43.9,69.1L43.9,69.1z M54.1,65.6
	c2.3-1.1,3.9-6.3,3.2-10.7c-0.8-5.3-8-9-13.3-6.7c-5.4,2.3-5.5,8.5-0.2,14.1C47.6,66.2,50.8,67.2,54.1,65.6z M64.5,70.1
	c0-0.2,0.8-0.6,1.9-0.9l1.9-0.5l0.4-6.8c0.4-7.5,0.1-15-0.7-16c-0.3-0.3-1.2-0.8-2-1c-3.3-0.7-1.1-1.2,5.3-1.2s8.5,0.5,5.4,1.2
	c-2.6,0.7-2.7,0.7-2.7,11.5c0,6,0.2,10.5,0.5,11.1c0.4,0.8,1.1,1,3.5,1c5.1,0,6.9-1.2,8.2-5.7c0.4-1.3,1.5-1.1,1.1,0.3
	c-0.2,0.6-0.5,2.5-0.6,4.3l-0.3,3.2h-11C69.4,70.5,64.5,70.3,64.5,70.1z"/>
<path class="st1" d="M89.5,69.8c0-0.4,0.4-0.8,1-1.1c0.9-0.4,1.4-1.2,3.5-5.2c3.2-6.3,8.3-17.1,8.8-18.8c0.4-1.2,0.5-1.3,1.9-1.5
	c0.8-0.1,1.5-0.1,1.5-0.1c0,0,1.1,2.5,2.5,5.4c1.3,3,4,8.6,6,12.5c3.3,6.6,3.6,7.2,4.7,7.7c0.7,0.3,1.2,0.8,1.2,1.1
	c0,0.5-0.6,0.5-5.5,0.5c-5,0-5.5-0.1-5.5-0.5c0-0.3,0.4-0.7,1.1-0.9c0.6-0.2,1.1-0.6,1.1-0.9c0-0.3-0.7-2-1.5-3.9l-1.5-3.5H97.7
	l-1.1,2.3c-2,4.4-2,5.4-0.2,5.9c0.9,0.3,1.2,0.5,1.1,0.9c-0.1,0.5-0.6,0.6-4.1,0.6C89.7,70.4,89.5,70.4,89.5,69.8z M107.7,58.9
	c0.2-0.3-4-9.5-4.4-9.5c-0.3-0.1-4.6,8.8-4.6,9.5C98.7,59.2,107.5,59.3,107.7,58.9z"/>
</svg>
